<?xml version="1.0" encoding="UTF-8" standalone="no"?>
<svg
   viewBox="0.0 0.0 348.0 348.0"
   fill="none"
   version="1.1"
   id="svg2"
   sodipodi:docname="Module Name.svg"
   inkscape:version="1.3 (0e150ed6c4, 2023-07-21)"
   xmlns:inkscape="http://www.inkscape.org/namespaces/inkscape"
   xmlns:sodipodi="http://sodipodi.sourceforge.net/DTD/sodipodi-0.dtd"
   xmlns="http://www.w3.org/2000/svg"
   xmlns:svg="http://www.w3.org/2000/svg">
  <defs
     id="defs2">
    <linearGradient
       id="swatch10"
       inkscape:swatch="solid">
      <stop
         style="stop-color:#000000;stop-opacity:1;"
         offset="0"
         id="stop10" />
    </linearGradient>
  </defs>
  <sodipodi:namedview
     id="namedview2"
     pagecolor="#ffffff"
     bordercolor="#000000"
     borderopacity="0.25"
     inkscape:showpageshadow="2"
     inkscape:pageopacity="0.0"
     inkscape:pagecheckerboard="0"
     inkscape:deskcolor="#d1d1d1"
     inkscape:zoom="2.3591954"
     inkscape:cx="173.78806"
     inkscape:cy="164.25091"
     inkscape:window-width="1920"
     inkscape:window-height="1017"
     inkscape:window-x="1912"
     inkscape:window-y="-8"
     inkscape:window-maximized="1"
     inkscape:current-layer="svg2" />
  <path
     d="M5.079 5.776h336.913v337.67H5.08z"
     stroke-width="2"
     stroke="#000"
     id="path1" />
  <path
     d="M282.734 40.554c0-8.376 6.966-15.165 15.56-15.165 4.126 0 8.084 1.597 11.001 4.441 2.918 2.844 4.558 6.702 4.558 10.724 0 8.376-6.966 15.165-15.56 15.165-8.593 0-15.559-6.79-15.559-15.165z"
     stroke-width="2"
     stroke="#000"
     id="path2" />
  <rect
     style="fill:#000000;fill-rule:evenodd"
     id="rect2"
     width="19.498173"
     height="19.498173"
     x="40.691841"
     y="19.922047" />
  <rect
     style="fill:#000000;fill-rule:evenodd"
     id="rect2-4"
     width="19.498173"
     height="19.498173"
     x="97.2631"
     y="19.501827" />
  <rect
     style="fill:#000000;fill-rule:evenodd"
     id="rect2-4-1"
     width="19.498173"
     height="19.498173"
     x="151.0621"
     y="19.522533" />
  <rect
     style="fill:#000000;fill-rule:evenodd"
     id="rect2-4-1-7"
     width="19.498173"
     height="19.498173"
     x="206.28015"
     y="19.370279" />
  <rect
     style="fill:#000000;fill-rule:evenodd"
     id="rect2-9"
     width="19.498173"
     height="19.498173"
     x="40.941536"
     y="294.25458" />
  <rect
     style="fill:#000000;fill-rule:evenodd"
     id="rect2-4-13"
     width="19.498173"
     height="19.498173"
     x="97.512794"
     y="293.83435" />
  <rect
     style="fill:#000000;fill-rule:evenodd"
     id="rect2-4-1-2"
     width="19.498173"
     height="19.498173"
     x="151.3118"
     y="293.85504" />
  <rect
     style="fill:#000000;fill-rule:evenodd"
     id="rect2-4-1-7-5"
     width="19.498173"
     height="19.498173"
     x="206.52985"
     y="293.70279" />
  <rect
     style="fill:#000000;fill-rule:evenodd;stroke-width:0.777372"
     id="rect3"
     width="53.831913"
     height="53.831909"
     x="24.160782"
     y="83.503044" />
  <rect
     style="fill:#ffffff;fill-rule:evenodd"
     id="rect4"
     width="48.321564"
     height="47.897686"
     x="26.70402"
     y="85.622414" />
  <rect
     style="fill:#000000;fill-rule:evenodd;stroke-width:0.777372"
     id="rect3-7"
     width="53.831913"
     height="53.831909"
     x="79.596832"
     y="83.650429" />
  <rect
     style="fill:#ffffff;fill-rule:evenodd"
     id="rect4-6"
     width="48.321564"
     height="47.897686"
     x="82.140068"
     y="85.769798" />
  <rect
     style="fill:#000000;fill-rule:evenodd;stroke-width:0.777372"
     id="rect3-7-1"
     width="53.831913"
     height="53.831909"
     x="134.97929"
     y="83.707672" />
  <rect
     style="fill:#ffffff;fill-rule:evenodd"
     id="rect4-6-4"
     width="48.321564"
     height="47.897686"
     x="137.52254"
     y="85.827042" />
  <rect
     style="fill:#000000;fill-rule:evenodd;stroke-width:0.777372"
     id="rect3-7-1-1"
     width="53.831913"
     height="53.831909"
     x="190.13275"
     y="83.847748" />
  <rect
     style="fill:#ffffff;fill-rule:evenodd"
     id="rect4-6-4-7"
     width="48.321564"
     height="47.897686"
     x="192.67601"
     y="85.967117" />
  <rect
     style="fill:#000000;fill-rule:evenodd;stroke-width:0.777372"
     id="rect3-1"
     width="53.831913"
     height="53.831909"
     x="23.87698"
     y="140.76248" />
  <rect
     style="fill:#ffffff;fill-rule:evenodd"
     id="rect4-5"
     width="48.321564"
     height="47.897686"
     x="26.420218"
     y="142.88185" />
  <rect
     style="fill:#000000;fill-rule:evenodd;stroke-width:0.777372"
     id="rect3-7-8"
     width="53.831913"
     height="53.831909"
     x="79.313026"
     y="140.90987" />
  <rect
     style="fill:#ffffff;fill-rule:evenodd"
     id="rect4-6-2"
     width="48.321564"
     height="47.897686"
     x="81.856262"
     y="143.02924" />
  <rect
     style="fill:#000000;fill-rule:evenodd;stroke-width:0.777372"
     id="rect3-7-1-2"
     width="53.831913"
     height="53.831909"
     x="134.6955"
     y="140.96712" />
  <rect
     style="fill:#ffffff;fill-rule:evenodd"
     id="rect4-6-4-0"
     width="48.321564"
     height="47.897686"
     x="137.23874"
     y="143.08649" />
  <rect
     style="fill:#000000;fill-rule:evenodd;stroke-width:0.777372"
     id="rect3-7-1-1-0"
     width="53.831913"
     height="53.831909"
     x="189.84895"
     y="141.10719" />
  <rect
     style="fill:#ffffff;fill-rule:evenodd"
     id="rect4-6-4-7-3"
     width="48.321564"
     height="47.897686"
     x="192.39221"
     y="143.22656" />
  <rect
     style="fill:#000000;fill-rule:evenodd;stroke-width:0.777372"
     id="rect3-1-5"
     width="53.831913"
     height="53.831909"
     x="23.747868"
     y="197.36298" />
  <rect
     style="fill:#ffffff;fill-rule:evenodd"
     id="rect4-5-2"
     width="48.321564"
     height="47.897686"
     x="26.291111"
     y="199.48235" />
  <rect
     style="fill:#000000;fill-rule:evenodd;stroke-width:0.777372"
     id="rect3-7-8-1"
     width="53.831913"
     height="53.831909"
     x="79.183922"
     y="197.51035" />
  <rect
     style="fill:#ffffff;fill-rule:evenodd"
     id="rect4-6-2-1"
     width="48.321564"
     height="47.897686"
     x="81.72715"
     y="199.62973" />
  <rect
     style="fill:#000000;fill-rule:evenodd;stroke-width:0.777372"
     id="rect3-7-1-2-1"
     width="53.831913"
     height="53.831909"
     x="134.56638"
     y="197.56761" />
  <rect
     style="fill:#ffffff;fill-rule:evenodd"
     id="rect4-6-4-0-6"
     width="48.321564"
     height="47.897686"
     x="137.10962"
     y="199.68698" />
  <rect
     style="fill:#000000;fill-rule:evenodd;stroke-width:0.777372"
     id="rect3-7-1-1-0-6"
     width="53.831913"
     height="53.831909"
     x="189.71985"
     y="197.70769" />
  <rect
     style="fill:#ffffff;fill-rule:evenodd"
     id="rect4-6-4-7-3-6"
     width="48.321564"
     height="47.897686"
     x="192.26309"
     y="199.82706" />
  <circle
     style="fill:#000000;fill-rule:evenodd;stroke-width:0.12854"
     id="path5"
     cx="134.36784"
     cy="56.799046"
     r="11.020768" />
  <circle
     style="fill:#000000;fill-rule:evenodd;stroke-width:0.12854"
     id="path5-8"
     cx="78.842934"
     cy="109.56036"
     r="11.020768" />
  <circle
     style="fill:#000000;fill-rule:evenodd;stroke-width:0.12854"
     id="path5-8-2"
     cx="134.41541"
     cy="109.84781"
     r="11.020768" />
  <circle
     style="fill:#000000;fill-rule:evenodd;stroke-width:0.12854"
     id="path5-8-2-0"
     cx="188.53477"
     cy="109.62978"
     r="11.020768" />
  <circle
     style="fill:#000000;fill-rule:evenodd;stroke-width:0.12854"
     id="path5-8-7"
     cx="78.386177"
     cy="165.66754"
     r="11.020768" />
  <circle
     style="fill:#000000;fill-rule:evenodd;stroke-width:0.12854"
     id="path5-8-2-5"
     cx="133.95865"
     cy="165.95499"
     r="11.020768" />
  <circle
     style="fill:#000000;fill-rule:evenodd;stroke-width:0.12854"
     id="path5-8-2-0-0"
     cx="188.07802"
     cy="165.73695"
     r="11.020768" />
  <circle
     style="fill:#000000;fill-rule:evenodd;stroke-width:0.12854"
     id="path5-8-7-9"
     cx="77.986664"
     cy="222.68825"
     r="11.020768" />
  <circle
     style="fill:#000000;fill-rule:evenodd;stroke-width:0.12854"
     id="path5-8-2-5-6"
     cx="133.55914"
     cy="222.97569"
     r="11.020768" />
  <circle
     style="fill:#000000;fill-rule:evenodd;stroke-width:0.12854"
     id="path5-8-2-0-0-2"
     cx="187.67851"
     cy="222.75766"
     r="11.020768" />
  <path
     style="opacity:1;fill:none;fill-opacity:1;fill-rule:nonzero;stroke:#000000;stroke-width:5;stroke-dasharray:none;stroke-opacity:1;paint-order:markers fill stroke"
     d="m 50.864799,38.148599 v 46.626066 l 55.951281,50.017055 0.84774,63.15712 108.51158,50.8648 0.84774,51.71255 M 161.07186,37.936661 v 46.626066 l 55.95128,50.017053 -167.42997,63.58099 56.79903,51.71255 0.84774,50.01706"
     id="path6"
     sodipodi:nodetypes="cccccccccccc" />
  <path
     style="fill:none;fill-opacity:1;fill-rule:nonzero;stroke:#000000;stroke-width:5;stroke-dasharray:none;stroke-opacity:1;paint-order:markers fill stroke"
     d="M 106.6827,35.359317 V 45.778319 84.528627 L 49.88368,135.8173 162.2101,198.97442 48.612062,249.41534 49.035929,303.24726 M 216.17539,38.572472 l 0.84775,47.295981 -58.91839,48.923267 57.64678,63.15713 -53.40805,52.13641 -0.84774,47.47381"
     id="path6-3"
     sodipodi:nodetypes="ccccccccccccc" />
  <rect
     style="opacity:1;fill:#000000;fill-opacity:1;fill-rule:nonzero;stroke:#000000;stroke-width:4.3;stroke-dasharray:none;stroke-opacity:1;paint-order:markers fill stroke"
     id="rect10"
     width="67.819733"
     height="80.535934"
     x="264.07309"
     y="123.77101" />
  <rect
     style="opacity:1;fill:#ffffff;fill-opacity:1;fill-rule:nonzero;stroke:#000000;stroke-width:5.2549;stroke-dasharray:none;stroke-opacity:1;paint-order:markers fill stroke"
     id="rect11"
     width="63.473835"
     height="41.43243"
     x="266.246"
     y="159.85382" />
  <text
     xml:space="preserve"
     style="opacity:1;fill:#ffffff;fill-opacity:1;fill-rule:nonzero;stroke:none;stroke-width:4.3;stroke-dasharray:none;stroke-opacity:1;paint-order:markers fill stroke"
     x="270.85504"
     y="133.5201"
     id="text11"><tspan
       sodipodi:role="line"
       id="tspan11"></tspan></text>
  <path
     d="m 282.8853,148.25372 h -1.81127 v -11.73663 l -3.78719,7.98603 h -1.07944 l -3.75975,-7.98603 v 11.73663 h -1.69234 v -13.62107 h 2.46991 l 3.63168,7.58352 3.51275,-7.58352 h 2.51565 z m 12.23061,-5.10447 q 0,2.49735 -1.28069,3.9427 -1.2807,1.44536 -3.43043,1.44536 -2.16803,0 -3.44872,-1.44536 -1.27154,-1.44535 -1.27154,-3.9427 0,-2.49735 1.27154,-3.9427 1.28069,-1.4545 3.44872,-1.4545 2.14973,0 3.43043,1.4545 1.28069,1.44535 1.28069,3.9427 z m -1.77467,0 q 0,-1.98507 -0.77757,-2.94559 -0.77756,-0.96967 -2.15888,-0.96967 -1.39961,0 -2.17718,0.96967 -0.76841,0.96052 -0.76841,2.94559 0,1.92104 0.77756,2.91815 0.77757,0.98796 2.16803,0.98796 1.37217,0 2.14973,-0.97881 0.78672,-0.98797 0.78672,-2.9273 z m 13.13624,-5.11362 -4.13481,10.21809 h -1.72893 l -4.10736,-10.21809 h 1.86615 l 3.16514,8.13239 3.13769,-8.13239 z m 10.63889,5.28743 h -7.52864 q 0,0.94222 0.28358,1.6466 0.28359,0.69524 0.77757,1.14348 0.47568,0.43909 1.12518,0.65864 0.65864,0.21955 1.44535,0.21955 1.04285,0 2.09485,-0.41165 1.06114,-0.4208 1.50938,-0.82331 h 0.0915 v 1.8753 q -0.86904,0.36591 -1.77467,0.61291 -0.90563,0.24699 -1.90275,0.24699 -2.54308,0 -3.97014,-1.37217 -1.42706,-1.38132 -1.42706,-3.91526 0,-2.5065 1.36302,-3.9793 1.37217,-1.47279 3.60424,-1.47279 2.0674,0 3.18343,1.20751 1.12518,1.20751 1.12518,3.43042 z m -1.67404,-1.31729 q -0.009,-1.35387 -0.68609,-2.09484 -0.66779,-0.74097 -2.03996,-0.74097 -1.38132,0 -2.20462,0.81415 -0.81415,0.81415 -0.92393,2.02166 z m 11.58111,3.30236 q 0,1.39961 -1.16177,2.2961 -1.15262,0.89648 -3.15599,0.89648 -1.13433,0 -2.0857,-0.26528 -0.94222,-0.27444 -1.58257,-0.59461 v -1.93019 h 0.0915 q 0.81416,0.61291 1.81127,0.97882 0.99711,0.35676 1.91189,0.35676 1.13432,0 1.77467,-0.36591 0.64035,-0.36591 0.64035,-1.15262 0,-0.60376 -0.34762,-0.91478 -0.34762,-0.31103 -1.33558,-0.53057 -0.36591,-0.0823 -0.96052,-0.19211 -0.58546,-0.10977 -1.07029,-0.23784 -1.34473,-0.35677 -1.91189,-1.04285 -0.55802,-0.69523 -0.55802,-1.70149 0,-0.6312 0.25614,-1.18922 0.26529,-0.55801 0.79586,-0.99711 0.51228,-0.42994 1.29899,-0.67693 0.79586,-0.25614 1.77467,-0.25614 0.91478,0 1.84786,0.22869 0.94222,0.21955 1.56427,0.53972 v 1.83871 h -0.0915 q -0.65864,-0.48483 -1.60086,-0.81415 -0.94223,-0.33847 -1.84786,-0.33847 -0.94222,0 -1.59172,0.36591 -0.64949,0.35676 -0.64949,1.07029 0,0.6312 0.39336,0.95137 0.3842,0.32018 1.2441,0.52143 0.47568,0.10977 1.06114,0.21955 0.59461,0.10977 0.98796,0.20125 1.19837,0.27443 1.84786,0.94222 0.64949,0.67694 0.64949,1.79297 z"
     id="text12"
     style="font-size:18.7347px;fill:#ffffff;stroke-width:6.71327;paint-order:markers fill stroke"
     aria-label="Moves" />
  <path
     d="m 309.62837,176.57541 h -6.12216 l -1.6914,6.9127 h 5.66253 v 2.48196 h -6.306 l -1.91203,7.74003 h -2.37165 l 1.91203,-7.74003 h -4.96391 l -1.91203,7.74003 h -2.37165 l 1.91203,-7.74003 h -5.47869 v -2.48196 h 6.12216 l 1.69141,-6.9127 h -5.66254 v -2.48196 h 6.30601 l 1.93041,-7.75841 h 2.37164 l -1.93041,7.75841 h 4.96392 l 1.93041,-7.75841 h 2.37164 l -1.93041,7.75841 h 5.47869 z m -8.43865,-0.0368 h -5.03745 l -1.72818,6.98624 h 5.03745 z"
     id="text13"
     style="font-size:37.6522px;fill:#000000;stroke-width:13.492;paint-order:markers fill stroke"
     aria-label="#" />
</svg>
